{
    "asset" : {
        "generator" : "Khronos glTF Blender I/O v1.3.48",
        "version" : "2.0"
    },
    "scene" : 0,
    "scenes" : [
        {
            "name" : "Scene",
            "nodes" : [
                7,
                9,
                15,
                17,
                19,
                21
            ]
        }
    ],
    "nodes" : [
        {
            "mesh" : 0,
            "name" : "Cube_3"
        },
        {
            "children" : [
                0
            ],
            "name" : "Pata_1",
            "rotation" : [
                0.024673255160450935,
                -0.1319989711046219,
                -0.1820736527442932,
                0.9740723371505737
            ],
            "translation" : [
                -82.13838958740234,
                -23.439273834228516,
                2.173004627227783
            ]
        },
        {
            "mesh" : 1,
            "name" : "Cube_2"
        },
        {
            "children" : [
                2
            ],
            "name" : "Pata_2",
            "rotation" : [
                0.013241116888821125,
                -0.1336306631565094,
                0.27125483751296997,
                0.9530940651893616
            ],
            "translation" : [
                -82.13838958740234,
                -52.93327331542969,
                2.173004627227783
            ]
        },
        {
            "mesh" : 2,
            "name" : "Cube"
        },
        {
            "children" : [
                4
            ],
            "name" : "Pata_3",
            "rotation" : [
                -0.009510073810815811,
                -0.1339479237794876,
                -0.4224892556667328,
                0.8963650465011597
            ],
            "translation" : [
                -84.44176483154297,
                76.37255096435547,
                -4.346009254455566
            ]
        },
        {
            "children" : [
                1,
                3,
                5
            ],
            "name" : "Patas"
        },
        {
            "children" : [
                6
            ],
            "name" : "Symmetry",
            "rotation" : [
                0.7071068286895752,
                0,
                0,
                0.7071067094802856
            ],
            "scale" : [
                0.009999999776482582,
                0.009999999776482582,
                0.009999999776482582
            ],
            "translation" : [
                2.0448646545410156,
                1.8822121620178223,
                0.6756917238235474
            ]
        },
        {
            "mesh" : 3,
            "name" : "Cube_4"
        },
        {
            "children" : [
                8
            ],
            "name" : "Pata",
            "rotation" : [
                0.6638725399971008,
                -0.24346096813678741,
                0.24346095323562622,
                0.6638725996017456
            ],
            "scale" : [
                0.009999999776482582,
                0.009999999776482582,
                0.009999999776482582
            ],
            "translation" : [
                1.218658208847046,
                1.8974299430847168,
                0.17781750857830048
            ]
        },
        {
            "mesh" : 4,
            "name" : "Cube_5"
        },
        {
            "children" : [
                10
            ],
            "name" : "Cabeza_antenas",
            "rotation" : [
                -0.14929324388504028,
                0,
                0,
                0.9887929558753967
            ],
            "translation" : [
                -0.6857506632804871,
                -78.5833740234375,
                -15.900266647338867
            ]
        },
        {
            "mesh" : 5,
            "name" : "Subdivision_Surface_1",
            "translation" : [
                4.109787464141846,
                -0.3459351360797882,
                1.8385472297668457
            ]
        },
        {
            "children" : [
                12
            ],
            "name" : "Ojo",
            "rotation" : [
                -0.23339185118675232,
                0.21164558827877045,
                -0.011687654070556164,
                0.9489983320236206
            ],
            "translation" : [
                -51.973480224609375,
                -177.9821319580078,
                -35.98180389404297
            ]
        },
        {
            "children" : [
                13
            ],
            "name" : "Ojos",
            "translation" : [
                0,
                78.5833740234375,
                15.900266647338867
            ]
        },
        {
            "children" : [
                11,
                14
            ],
            "name" : "Cabeza_ojos",
            "rotation" : [
                0.6772967576980591,
                0,
                0,
                0.7357099652290344
            ],
            "scale" : [
                0.009999999776482582,
                0.009999999776482582,
                0.009999999776482582
            ],
            "translation" : [
                2.0448646545410156,
                1.973726511001587,
                0.17407281696796417
            ]
        },
        {
            "mesh" : 6,
            "name" : "Subdivision_Surface",
            "rotation" : [
                0.02488129585981369,
                0,
                0,
                0.9996904134750366
            ],
            "translation" : [
                0,
                3.41418194770813,
                3.2007334232330322
            ]
        },
        {
            "children" : [
                16
            ],
            "name" : "Uni\u00f3n_cuerpo",
            "rotation" : [
                0.7071068286895752,
                0,
                0,
                0.7071067094802856
            ],
            "scale" : [
                0.009999999776482582,
                0.009999999776482582,
                0.009999999776482582
            ],
            "translation" : [
                2.0448646545410156,
                2.240994453430176,
                -0.17024537920951843
            ]
        },
        {
            "mesh" : 7,
            "name" : "Alas_2"
        },
        {
            "children" : [
                18
            ],
            "name" : "Alas",
            "rotation" : [
                0.7071068286895752,
                0,
                0,
                0.7071067094802856
            ],
            "scale" : [
                0.009999999776482582,
                0.009999999776482582,
                0.009999999776482582
            ],
            "translation" : [
                2.0448646545410156,
                2.138993263244629,
                0.6409406661987305
            ]
        },
        {
            "mesh" : 8,
            "name" : "Sphere",
            "scale" : [
                1,
                1,
                1.5
            ]
        },
        {
            "children" : [
                20
            ],
            "name" : "Base_cuerpo",
            "rotation" : [
                -1,
                0,
                0,
                7.549790126404332e-08
            ],
            "scale" : [
                0.009999999776482582,
                0.009999999776482582,
                0.009999999776482582
            ],
            "translation" : [
                2.0448646545410156,
                2.047431230545044,
                0.9299262762069702
            ]
        }
    ],
    "materials" : [
        {
            "doubleSided" : true,
            "emissiveFactor" : [
                0,
                0,
                0
            ],
            "name" : "Mat.1",
            "pbrMetallicRoughness" : {
                "baseColorFactor" : [
                    0.0901913121342659,
                    0.6916113495826721,
                    0.9800001382827759,
                    1
                ],
                "metallicFactor" : 1,
                "roughnessFactor" : 0.2136363685131073
            }
        }
    ],
    "meshes" : [
        {
            "name" : "Mesh.002",
            "primitives" : [
                {
                    "attributes" : {
                        "POSITION" : 0,
                        "NORMAL" : 1,
                        "TEXCOORD_0" : 2
                    },
                    "indices" : 3,
                    "material" : 0
                }
            ]
        },
        {
            "name" : "Mesh.001",
            "primitives" : [
                {
                    "attributes" : {
                        "POSITION" : 4,
                        "NORMAL" : 5,
                        "TEXCOORD_0" : 6
                    },
                    "indices" : 3,
                    "material" : 0
                }
            ]
        },
        {
            "name" : "Mesh",
            "primitives" : [
                {
                    "attributes" : {
                        "POSITION" : 7,
                        "NORMAL" : 8,
                        "TEXCOORD_0" : 9
                    },
                    "indices" : 3,
                    "material" : 0
                }
            ]
        },
        {
            "name" : "Mesh.003",
            "primitives" : [
                {
                    "attributes" : {
                        "POSITION" : 10,
                        "NORMAL" : 11,
                        "TEXCOORD_0" : 12
                    },
                    "indices" : 13,
                    "material" : 0
                }
            ]
        },
        {
            "name" : "Mesh.004",
            "primitives" : [
                {
                    "attributes" : {
                        "POSITION" : 14,
                        "NORMAL" : 15,
                        "TEXCOORD_0" : 16
                    },
                    "indices" : 17,
                    "material" : 0
                }
            ]
        },
        {
            "name" : "Mesh.005",
            "primitives" : [
                {
                    "attributes" : {
                        "POSITION" : 18,
                        "NORMAL" : 19,
                        "TEXCOORD_0" : 20
                    },
                    "indices" : 21,
                    "material" : 0
                }
            ]
        },
        {
            "name" : "Mesh.006",
            "primitives" : [
                {
                    "attributes" : {
                        "POSITION" : 22,
                        "NORMAL" : 23,
                        "TEXCOORD_0" : 24
                    },
                    "indices" : 25,
                    "material" : 0
                }
            ]
        },
        {
            "name" : "Mesh.007",
            "primitives" : [
                {
                    "attributes" : {
                        "POSITION" : 26,
                        "NORMAL" : 27,
                        "TEXCOORD_0" : 28
                    },
                    "indices" : 29,
                    "material" : 0
                }
            ]
        },
        {
            "name" : "Mesh.008",
            "primitives" : [
                {
                    "attributes" : {
                        "POSITION" : 30,
                        "NORMAL" : 31,
                        "TEXCOORD_0" : 32
                    },
                    "indices" : 33,
                    "material" : 0
                }
            ]
        }
    ],
    "accessors" : [
        {
            "bufferView" : 0,
            "componentType" : 5126,
            "count" : 2346,
            "max" : [
                285.19439697265625,
                168.6795196533203,
                85.99771881103516
            ],
            "min" : [
                -154.90249633789062,
                -14.641453742980957,
                -66.7349853515625
            ],
            "type" : "VEC3"
        },
        {
            "bufferView" : 1,
            "componentType" : 5126,
            "count" : 2346,
            "type" : "VEC3"
        },
        {
            "bufferView" : 2,
            "componentType" : 5126,
            "count" : 2346,
            "type" : "VEC2"
        },
        {
            "bufferView" : 3,
            "componentType" : 5123,
            "count" : 11604,
            "type" : "SCALAR"
        },
        {
            "bufferView" : 4,
            "componentType" : 5126,
            "count" : 2346,
            "max" : [
                219.2069549560547,
                9.141494750976562,
                85.99771881103516
            ],
            "min" : [
                -154.90249633789062,
                -239.31362915039062,
                -61.66328048706055
            ],
            "type" : "VEC3"
        },
        {
            "bufferView" : 5,
            "componentType" : 5126,
            "count" : 2346,
            "type" : "VEC3"
        },
        {
            "bufferView" : 6,
            "componentType" : 5126,
            "count" : 2346,
            "type" : "VEC2"
        },
        {
            "bufferView" : 7,
            "componentType" : 5126,
            "count" : 2346,
            "max" : [
                108.9073715209961,
                300.3860168457031,
                85.99771881103516
            ],
            "min" : [
                -154.90249633789062,
                -14.641453742980957,
                -56.656150817871094
            ],
            "type" : "VEC3"
        },
        {
            "bufferView" : 8,
            "componentType" : 5126,
            "count" : 2346,
            "type" : "VEC3"
        },
        {
            "bufferView" : 9,
            "componentType" : 5126,
            "count" : 2346,
            "type" : "VEC2"
        },
        {
            "bufferView" : 10,
            "componentType" : 5126,
            "count" : 1170,
            "max" : [
                6.344301223754883,
                8.894634246826172,
                19.579023361206055
            ],
            "min" : [
                -165.73153686523438,
                -27.93578338623047,
                -29.717161178588867
            ],
            "type" : "VEC3"
        },
        {
            "bufferView" : 11,
            "componentType" : 5126,
            "count" : 1170,
            "type" : "VEC3"
        },
        {
            "bufferView" : 12,
            "componentType" : 5126,
            "count" : 1170,
            "type" : "VEC2"
        },
        {
            "bufferView" : 13,
            "componentType" : 5123,
            "count" : 5802,
            "type" : "SCALAR"
        },
        {
            "bufferView" : 14,
            "componentType" : 5126,
            "count" : 5229,
            "max" : [
                98.82526397705078,
                48.782958984375,
                26.136873245239258
            ],
            "min" : [
                -97.45376586914062,
                -122.71527099609375,
                -67.0494155883789
            ],
            "type" : "VEC3"
        },
        {
            "bufferView" : 15,
            "componentType" : 5126,
            "count" : 5229,
            "type" : "VEC3"
        },
        {
            "bufferView" : 16,
            "componentType" : 5126,
            "count" : 5229,
            "type" : "VEC2"
        },
        {
            "bufferView" : 17,
            "componentType" : 5123,
            "count" : 29664,
            "type" : "SCALAR"
        },
        {
            "bufferView" : 18,
            "componentType" : 5126,
            "count" : 288,
            "max" : [
                94.35908508300781,
                12.754578590393066,
                46.59674835205078
            ],
            "min" : [
                -8.131563186645508,
                -22.427494049072266,
                -7.142928600311279
            ],
            "type" : "VEC3"
        },
        {
            "bufferView" : 19,
            "componentType" : 5126,
            "count" : 288,
            "type" : "VEC3"
        },
        {
            "bufferView" : 20,
            "componentType" : 5126,
            "count" : 288,
            "type" : "VEC2"
        },
        {
            "bufferView" : 21,
            "componentType" : 5123,
            "count" : 1152,
            "type" : "SCALAR"
        },
        {
            "bufferView" : 22,
            "componentType" : 5126,
            "count" : 163,
            "max" : [
                99.02225494384766,
                76.9912338256836,
                52.54909133911133
            ],
            "min" : [
                -99.02225494384766,
                -76.98614501953125,
                -56.99551010131836
            ],
            "type" : "VEC3"
        },
        {
            "bufferView" : 23,
            "componentType" : 5126,
            "count" : 163,
            "type" : "VEC3"
        },
        {
            "bufferView" : 24,
            "componentType" : 5126,
            "count" : 163,
            "type" : "VEC2"
        },
        {
            "bufferView" : 25,
            "componentType" : 5123,
            "count" : 576,
            "type" : "SCALAR"
        },
        {
            "bufferView" : 26,
            "componentType" : 5126,
            "count" : 4503,
            "max" : [
                118.61003112792969,
                195.03546142578125,
                23.092391967773438
            ],
            "min" : [
                -118.78137969970703,
                -103.98960876464844,
                -88.76910400390625
            ],
            "type" : "VEC3"
        },
        {
            "bufferView" : 27,
            "componentType" : 5126,
            "count" : 4503,
            "type" : "VEC3"
        },
        {
            "bufferView" : 28,
            "componentType" : 5126,
            "count" : 4503,
            "type" : "VEC2"
        },
        {
            "bufferView" : 29,
            "componentType" : 5123,
            "count" : 23808,
            "type" : "SCALAR"
        },
        {
            "bufferView" : 30,
            "componentType" : 5126,
            "count" : 1025,
            "max" : [
                105.20677185058594,
                75.63378143310547,
                96.53388214111328
            ],
            "min" : [
                -105.20677185058594,
                -75.63378143310547,
                -105.80892944335938
            ],
            "type" : "VEC3"
        },
        {
            "bufferView" : 31,
            "componentType" : 5126,
            "count" : 1025,
            "type" : "VEC3"
        },
        {
            "bufferView" : 32,
            "componentType" : 5126,
            "count" : 1025,
            "type" : "VEC2"
        },
        {
            "bufferView" : 33,
            "componentType" : 5123,
            "count" : 2520,
            "type" : "SCALAR"
        }
    ],
    "bufferViews" : [
        {
            "buffer" : 0,
            "byteLength" : 28152,
            "byteOffset" : 0
        },
        {
            "buffer" : 0,
            "byteLength" : 28152,
            "byteOffset" : 28152
        },
        {
            "buffer" : 0,
            "byteLength" : 18768,
            "byteOffset" : 56304
        },
        {
            "buffer" : 0,
            "byteLength" : 23208,
            "byteOffset" : 75072
        },
        {
            "buffer" : 0,
            "byteLength" : 28152,
            "byteOffset" : 98280
        },
        {
            "buffer" : 0,
            "byteLength" : 28152,
            "byteOffset" : 126432
        },
        {
            "buffer" : 0,
            "byteLength" : 18768,
            "byteOffset" : 154584
        },
        {
            "buffer" : 0,
            "byteLength" : 28152,
            "byteOffset" : 173352
        },
        {
            "buffer" : 0,
            "byteLength" : 28152,
            "byteOffset" : 201504
        },
        {
            "buffer" : 0,
            "byteLength" : 18768,
            "byteOffset" : 229656
        },
        {
            "buffer" : 0,
            "byteLength" : 14040,
            "byteOffset" : 248424
        },
        {
            "buffer" : 0,
            "byteLength" : 14040,
            "byteOffset" : 262464
        },
        {
            "buffer" : 0,
            "byteLength" : 9360,
            "byteOffset" : 276504
        },
        {
            "buffer" : 0,
            "byteLength" : 11604,
            "byteOffset" : 285864
        },
        {
            "buffer" : 0,
            "byteLength" : 62748,
            "byteOffset" : 297468
        },
        {
            "buffer" : 0,
            "byteLength" : 62748,
            "byteOffset" : 360216
        },
        {
            "buffer" : 0,
            "byteLength" : 41832,
            "byteOffset" : 422964
        },
        {
            "buffer" : 0,
            "byteLength" : 59328,
            "byteOffset" : 464796
        },
        {
            "buffer" : 0,
            "byteLength" : 3456,
            "byteOffset" : 524124
        },
        {
            "buffer" : 0,
            "byteLength" : 3456,
            "byteOffset" : 527580
        },
        {
            "buffer" : 0,
            "byteLength" : 2304,
            "byteOffset" : 531036
        },
        {
            "buffer" : 0,
            "byteLength" : 2304,
            "byteOffset" : 533340
        },
        {
            "buffer" : 0,
            "byteLength" : 1956,
            "byteOffset" : 535644
        },
        {
            "buffer" : 0,
            "byteLength" : 1956,
            "byteOffset" : 537600
        },
        {
            "buffer" : 0,
            "byteLength" : 1304,
            "byteOffset" : 539556
        },
        {
            "buffer" : 0,
            "byteLength" : 1152,
            "byteOffset" : 540860
        },
        {
            "buffer" : 0,
            "byteLength" : 54036,
            "byteOffset" : 542012
        },
        {
            "buffer" : 0,
            "byteLength" : 54036,
            "byteOffset" : 596048
        },
        {
            "buffer" : 0,
            "byteLength" : 36024,
            "byteOffset" : 650084
        },
        {
            "buffer" : 0,
            "byteLength" : 47616,
            "byteOffset" : 686108
        },
        {
            "buffer" : 0,
            "byteLength" : 12300,
            "byteOffset" : 733724
        },
        {
            "buffer" : 0,
            "byteLength" : 12300,
            "byteOffset" : 746024
        },
        {
            "buffer" : 0,
            "byteLength" : 8200,
            "byteOffset" : 758324
        },
        {
            "buffer" : 0,
            "byteLength" : 5040,
            "byteOffset" : 766524
        }
    ],
    "buffers" : [
        {
            "byteLength" : 771564,
            "uri" : "data:application/octet-stream;base64,"
        }
    ]
}
