{
    "asset" : {
        "generator" : "Khronos glTF Blender I/O v1.3.48",
        "version" : "2.0"
    },
    "scene" : 0,
    "scenes" : [
        {
            "name" : "Scene",
            "nodes" : [
                9,
                10,
                11,
                12,
                13
            ]
        }
    ],
    "nodes" : [
        {
            "mesh" : 0,
            "name" : "Object_1"
        },
        {
            "mesh" : 1,
            "name" : "Object_10"
        },
        {
            "mesh" : 2,
            "name" : "Object_3"
        },
        {
            "mesh" : 3,
            "name" : "Object_4"
        },
        {
            "mesh" : 4,
            "name" : "Object_5"
        },
        {
            "mesh" : 5,
            "name" : "Object_6"
        },
        {
            "mesh" : 6,
            "name" : "Object_7"
        },
        {
            "mesh" : 7,
            "name" : "Object_8"
        },
        {
            "mesh" : 8,
            "name" : "Object_9"
        },
        {
            "children" : [
                0,
                1,
                2,
                3,
                4,
                5,
                6,
                7,
                8
            ],
            "name" : "EXTRUSIONES"
        },
        {
            "name" : "Perspective",
            "rotation" : [
                0.4626389145851135,
                0.4626389145851135,
                0.08420984447002411,
                0.7515578269958496
            ],
            "translation" : [
                9.598767280578613,
                20.901288986206055,
                23.636497497558594
            ]
        },
        {
            "name" : "Top",
            "translation" : [
                -3.7998554706573486,
                82.49955749511719,
                -6.359771251678467
            ]
        },
        {
            "name" : "Front",
            "rotation" : [
                0.5000001192092896,
                0.5000000596046448,
                0.5,
                0.5
            ],
            "translation" : [
                0,
                0,
                82.49955749511719
            ]
        },
        {
            "name" : "Right",
            "rotation" : [
                -0.7071068286895752,
                0.7071067094802856,
                0,
                -3.090862321641907e-08
            ],
            "translation" : [
                82.49955749511719,
                -4.098062515258789,
                -12.16563892364502
            ]
        }
    ],
    "materials" : [
        {
            "doubleSided" : true,
            "emissiveFactor" : [
                0,
                0,
                0
            ],
            "name" : "Material_2",
            "pbrMetallicRoughness" : {
                "baseColorFactor" : [
                    0.9130896329879761,
                    0.17694388329982758,
                    0.9803925156593323,
                    1
                ],
                "metallicFactor" : 0.5272727608680725,
                "roughnessFactor" : 0.6482409834861755
            }
        }
    ],
    "meshes" : [
        {
            "name" : "Object_1",
            "primitives" : [
                {
                    "attributes" : {
                        "POSITION" : 0,
                        "NORMAL" : 1,
                        "TEXCOORD_0" : 2
                    },
                    "indices" : 3,
                    "material" : 0
                }
            ]
        },
        {
            "name" : "Object_10",
            "primitives" : [
                {
                    "attributes" : {
                        "POSITION" : 4,
                        "NORMAL" : 5,
                        "TEXCOORD_0" : 6
                    },
                    "indices" : 7,
                    "material" : 0
                }
            ]
        },
        {
            "name" : "Object_3",
            "primitives" : [
                {
                    "attributes" : {
                        "POSITION" : 8,
                        "NORMAL" : 9,
                        "TEXCOORD_0" : 10
                    },
                    "indices" : 11,
                    "material" : 0
                }
            ]
        },
        {
            "name" : "Object_4",
            "primitives" : [
                {
                    "attributes" : {
                        "POSITION" : 12,
                        "NORMAL" : 13,
                        "TEXCOORD_0" : 14
                    },
                    "indices" : 15,
                    "material" : 0
                }
            ]
        },
        {
            "name" : "Object_5",
            "primitives" : [
                {
                    "attributes" : {
                        "POSITION" : 16,
                        "NORMAL" : 17,
                        "TEXCOORD_0" : 18
                    },
                    "indices" : 3,
                    "material" : 0
                }
            ]
        },
        {
            "name" : "Object_6",
            "primitives" : [
                {
                    "attributes" : {
                        "POSITION" : 19,
                        "NORMAL" : 20,
                        "TEXCOORD_0" : 21
                    },
                    "indices" : 22,
                    "material" : 0
                }
            ]
        },
        {
            "name" : "Object_7",
            "primitives" : [
                {
                    "attributes" : {
                        "POSITION" : 23,
                        "NORMAL" : 24,
                        "TEXCOORD_0" : 25
                    },
                    "indices" : 26,
                    "material" : 0
                }
            ]
        },
        {
            "name" : "Object_8",
            "primitives" : [
                {
                    "attributes" : {
                        "POSITION" : 27,
                        "NORMAL" : 28,
                        "TEXCOORD_0" : 29
                    },
                    "indices" : 30,
                    "material" : 0
                }
            ]
        },
        {
            "name" : "Object_9",
            "primitives" : [
                {
                    "attributes" : {
                        "POSITION" : 31,
                        "NORMAL" : 32,
                        "TEXCOORD_0" : 33
                    },
                    "indices" : 34,
                    "material" : 0
                }
            ]
        }
    ],
    "accessors" : [
        {
            "bufferView" : 0,
            "componentType" : 5126,
            "count" : 24,
            "max" : [
                1,
                1.3715509176254272,
                -7.420000076293945
            ],
            "min" : [
                -1,
                0.37155088782310486,
                -10.420000076293945
            ],
            "type" : "VEC3"
        },
        {
            "bufferView" : 1,
            "componentType" : 5126,
            "count" : 24,
            "type" : "VEC3"
        },
        {
            "bufferView" : 2,
            "componentType" : 5126,
            "count" : 24,
            "type" : "VEC2"
        },
        {
            "bufferView" : 3,
            "componentType" : 5123,
            "count" : 36,
            "type" : "SCALAR"
        },
        {
            "bufferView" : 4,
            "componentType" : 5126,
            "count" : 588,
            "max" : [
                6.159999847412109,
                0.37155088782310486,
                0
            ],
            "min" : [
                -10,
                0.0715508759021759,
                -20
            ],
            "type" : "VEC3"
        },
        {
            "bufferView" : 5,
            "componentType" : 5126,
            "count" : 588,
            "type" : "VEC3"
        },
        {
            "bufferView" : 6,
            "componentType" : 5126,
            "count" : 588,
            "type" : "VEC2"
        },
        {
            "bufferView" : 7,
            "componentType" : 5123,
            "count" : 1704,
            "type" : "SCALAR"
        },
        {
            "bufferView" : 8,
            "componentType" : 5126,
            "count" : 36,
            "max" : [
                2,
                3.8715507984161377,
                -0.1599999964237213
            ],
            "min" : [
                0.800000011920929,
                0.37155088782310486,
                -4
            ],
            "type" : "VEC3"
        },
        {
            "bufferView" : 9,
            "componentType" : 5126,
            "count" : 36,
            "type" : "VEC3"
        },
        {
            "bufferView" : 10,
            "componentType" : 5126,
            "count" : 36,
            "type" : "VEC2"
        },
        {
            "bufferView" : 11,
            "componentType" : 5123,
            "count" : 60,
            "type" : "SCALAR"
        },
        {
            "bufferView" : 12,
            "componentType" : 5126,
            "count" : 24,
            "max" : [
                -0.800000011920929,
                3.8715507984161377,
                -0.1599999964237213
            ],
            "min" : [
                -0.9599999785423279,
                0.37155088782310486,
                -2
            ],
            "type" : "VEC3"
        },
        {
            "bufferView" : 13,
            "componentType" : 5126,
            "count" : 24,
            "type" : "VEC3"
        },
        {
            "bufferView" : 14,
            "componentType" : 5126,
            "count" : 24,
            "type" : "VEC2"
        },
        {
            "bufferView" : 15,
            "componentType" : 5123,
            "count" : 36,
            "type" : "SCALAR"
        },
        {
            "bufferView" : 16,
            "componentType" : 5126,
            "count" : 24,
            "max" : [
                4.840000152587891,
                3.8715507984161377,
                -3.8399999141693115
            ],
            "min" : [
                3,
                0.37155088782310486,
                -4
            ],
            "type" : "VEC3"
        },
        {
            "bufferView" : 17,
            "componentType" : 5126,
            "count" : 24,
            "type" : "VEC3"
        },
        {
            "bufferView" : 18,
            "componentType" : 5126,
            "count" : 24,
            "type" : "VEC2"
        },
        {
            "bufferView" : 19,
            "componentType" : 5126,
            "count" : 36,
            "max" : [
                -0.800000011920929,
                3.8715507984161377,
                -3
            ],
            "min" : [
                -4.840000152587891,
                0.37155088782310486,
                -4
            ],
            "type" : "VEC3"
        },
        {
            "bufferView" : 20,
            "componentType" : 5126,
            "count" : 36,
            "type" : "VEC3"
        },
        {
            "bufferView" : 21,
            "componentType" : 5126,
            "count" : 36,
            "type" : "VEC2"
        },
        {
            "bufferView" : 22,
            "componentType" : 5123,
            "count" : 60,
            "type" : "SCALAR"
        },
        {
            "bufferView" : 23,
            "componentType" : 5126,
            "count" : 60,
            "max" : [
                5,
                1.5715508460998535,
                -3.8399999141693115
            ],
            "min" : [
                -10,
                0.37155088782310486,
                -20
            ],
            "type" : "VEC3"
        },
        {
            "bufferView" : 24,
            "componentType" : 5126,
            "count" : 60,
            "type" : "VEC3"
        },
        {
            "bufferView" : 25,
            "componentType" : 5126,
            "count" : 60,
            "type" : "VEC2"
        },
        {
            "bufferView" : 26,
            "componentType" : 5123,
            "count" : 108,
            "type" : "SCALAR"
        },
        {
            "bufferView" : 27,
            "componentType" : 5126,
            "count" : 808,
            "max" : [
                6.159999847412109,
                3.8715507984161377,
                0
            ],
            "min" : [
                0.800000011920929,
                0.37155088782310486,
                -14
            ],
            "type" : "VEC3"
        },
        {
            "bufferView" : 28,
            "componentType" : 5126,
            "count" : 808,
            "type" : "VEC3"
        },
        {
            "bufferView" : 29,
            "componentType" : 5126,
            "count" : 808,
            "type" : "VEC2"
        },
        {
            "bufferView" : 30,
            "componentType" : 5123,
            "count" : 2340,
            "type" : "SCALAR"
        },
        {
            "bufferView" : 31,
            "componentType" : 5126,
            "count" : 48,
            "max" : [
                -0.800000011920929,
                3.8715507984161377,
                0
            ],
            "min" : [
                -5,
                0.37155088782310486,
                -14
            ],
            "type" : "VEC3"
        },
        {
            "bufferView" : 32,
            "componentType" : 5126,
            "count" : 48,
            "type" : "VEC3"
        },
        {
            "bufferView" : 33,
            "componentType" : 5126,
            "count" : 48,
            "type" : "VEC2"
        },
        {
            "bufferView" : 34,
            "componentType" : 5123,
            "count" : 84,
            "type" : "SCALAR"
        }
    ],
    "bufferViews" : [
        {
            "buffer" : 0,
            "byteLength" : 288,
            "byteOffset" : 0
        },
        {
            "buffer" : 0,
            "byteLength" : 288,
            "byteOffset" : 288
        },
        {
            "buffer" : 0,
            "byteLength" : 192,
            "byteOffset" : 576
        },
        {
            "buffer" : 0,
            "byteLength" : 72,
            "byteOffset" : 768
        },
        {
            "buffer" : 0,
            "byteLength" : 7056,
            "byteOffset" : 840
        },
        {
            "buffer" : 0,
            "byteLength" : 7056,
            "byteOffset" : 7896
        },
        {
            "buffer" : 0,
            "byteLength" : 4704,
            "byteOffset" : 14952
        },
        {
            "buffer" : 0,
            "byteLength" : 3408,
            "byteOffset" : 19656
        },
        {
            "buffer" : 0,
            "byteLength" : 432,
            "byteOffset" : 23064
        },
        {
            "buffer" : 0,
            "byteLength" : 432,
            "byteOffset" : 23496
        },
        {
            "buffer" : 0,
            "byteLength" : 288,
            "byteOffset" : 23928
        },
        {
            "buffer" : 0,
            "byteLength" : 120,
            "byteOffset" : 24216
        },
        {
            "buffer" : 0,
            "byteLength" : 288,
            "byteOffset" : 24336
        },
        {
            "buffer" : 0,
            "byteLength" : 288,
            "byteOffset" : 24624
        },
        {
            "buffer" : 0,
            "byteLength" : 192,
            "byteOffset" : 24912
        },
        {
            "buffer" : 0,
            "byteLength" : 72,
            "byteOffset" : 25104
        },
        {
            "buffer" : 0,
            "byteLength" : 288,
            "byteOffset" : 25176
        },
        {
            "buffer" : 0,
            "byteLength" : 288,
            "byteOffset" : 25464
        },
        {
            "buffer" : 0,
            "byteLength" : 192,
            "byteOffset" : 25752
        },
        {
            "buffer" : 0,
            "byteLength" : 432,
            "byteOffset" : 25944
        },
        {
            "buffer" : 0,
            "byteLength" : 432,
            "byteOffset" : 26376
        },
        {
            "buffer" : 0,
            "byteLength" : 288,
            "byteOffset" : 26808
        },
        {
            "buffer" : 0,
            "byteLength" : 120,
            "byteOffset" : 27096
        },
        {
            "buffer" : 0,
            "byteLength" : 720,
            "byteOffset" : 27216
        },
        {
            "buffer" : 0,
            "byteLength" : 720,
            "byteOffset" : 27936
        },
        {
            "buffer" : 0,
            "byteLength" : 480,
            "byteOffset" : 28656
        },
        {
            "buffer" : 0,
            "byteLength" : 216,
            "byteOffset" : 29136
        },
        {
            "buffer" : 0,
            "byteLength" : 9696,
            "byteOffset" : 29352
        },
        {
            "buffer" : 0,
            "byteLength" : 9696,
            "byteOffset" : 39048
        },
        {
            "buffer" : 0,
            "byteLength" : 6464,
            "byteOffset" : 48744
        },
        {
            "buffer" : 0,
            "byteLength" : 4680,
            "byteOffset" : 55208
        },
        {
            "buffer" : 0,
            "byteLength" : 576,
            "byteOffset" : 59888
        },
        {
            "buffer" : 0,
            "byteLength" : 576,
            "byteOffset" : 60464
        },
        {
            "buffer" : 0,
            "byteLength" : 384,
            "byteOffset" : 61040
        },
        {
            "buffer" : 0,
            "byteLength" : 168,
            "byteOffset" : 61424
        }
    ],
    "buffers" : [
        {
            "byteLength" : 61592,
            "uri" : "data:application/octet-stream;base64,"
        }
    ]
}
